<svg width="282" height="138" xmlns="http://www.w3.org/2000/svg">
    <defs>
        <linearGradient x1=".482%" y1="49.947%" x2="100.04%" y2="49.947%" id="a">
            <stop stop-color="#F9AD00" offset="0%"/>
            <stop stop-color="#F39000" offset="63%"/>
            <stop stop-color="#F18500" offset="100%"/>
        </linearGradient>
        <linearGradient x1="24.46%" y1="41.121%" x2="82.109%" y2="56.275%" id="b">
            <stop stop-color="#FDC200" offset="0%"/>
            <stop stop-color="#FDBF00" offset="36%"/>
            <stop stop-color="#FBB700" offset="57%"/>
            <stop stop-color="#F8A900" offset="75%"/>
            <stop stop-color="#F49500" offset="91%"/>
            <stop stop-color="#F18500" offset="100%"/>
        </linearGradient>
        <linearGradient x1="-.026%" y1="49.948%" x2="100%" y2="49.948%" id="c">
            <stop stop-color="#FC0" offset="0%"/>
            <stop stop-color="#FFC900" offset="34%"/>
            <stop stop-color="#FDC100" offset="55%"/>
            <stop stop-color="#FAB300" offset="72%"/>
            <stop stop-color="#F69F00" offset="87%"/>
            <stop stop-color="#F18500" offset="100%"/>
        </linearGradient>
    </defs>
    <g fill="none" fill-rule="evenodd">
        <path fill="none" d="M0 0h282v138H0z"/>
        <g fill-rule="nonzero">
            <path d="M167.541 73.204a4.318 4.318 0 0 0-1.253-1.774c-.983-.66-1.919-.597-2.268.597-1.475 4.883-4.615 17.65-5.773 23.428-1.221 6.375-3.474 11.118-6.345 11.903a2.193 2.193 0 0 1-1.776-.153c-.543-.3-.93-.816-1.063-1.418a9.54 9.54 0 0 1-.428-2.324c-.333-5.307 2.347-13.363 3.442-18.293.285-1.1.507-2.12.65-3.03a7.432 7.432 0 0 0 0-2.356 2.152 2.152 0 0 0-1.126-1.57 3.896 3.896 0 0 0-1.19-.409 6.215 6.215 0 0 0-1.935 0 6.835 6.835 0 0 0-2.426.817 3.452 3.452 0 0 0-.92.722.953.953 0 0 0-.286.722.582.582 0 0 0 .38.472l.715.33c.28.108.539.268.761.47.26.283.422.64.46 1.021-2.538 7.851-4.441 14.352-4.029 19.895.119 1.03.38 2.04.777 3 .997 2.755 3.642 4.587 6.599 4.57a9.926 9.926 0 0 0 3.299-.456 11.37 11.37 0 0 0 5.313-3.376 4.1 4.1 0 0 0 1.38.55 7.801 7.801 0 0 0 2.332 0 5.96 5.96 0 0 0 2.823-1.273 3.54 3.54 0 0 0 1.792-3.407.455.455 0 0 0-.2-.333.464.464 0 0 0-.387-.06 3.964 3.964 0 0 0-1.03.534 4.79 4.79 0 0 1-1.809.628c-1.094.142-1.744-.408-1.998-1.57a183.834 183.834 0 0 0 5.742-23.413 8.958 8.958 0 0 0-.223-4.444z" fill="url(#a)" transform="translate(21.818 13)"/>
            <path d="M122.908 100.166c-3.838 1.225-7.423 2.983-10.61 3.926-.271.096-.554.155-.841.172-1.365 0-1.824-2.292-1.824-3.14 7.026-7.852 14.37-15.813 19.699-24.685a.78.78 0 0 1 .714-.361c2.114-.009 4.18.627 5.916 1.821.333.189.523.424.523.597a.469.469 0 0 1-.126.299c-.32.3-.606.631-.857.989a50.637 50.637 0 0 0-5.821 14.839c1.142-.189 5.567-1.35 5.821-1.005 1.46-.393 2.998 3.69.714 4.114-.904 0-6.027.895-7.518 1.115a127.758 127.758 0 0 0-2.094 14.462c0 .455-.206.691-.777.691-1.586 0-4.299-1.288-4.299-2.575a110.27 110.27 0 0 1 1.38-11.26zm-8.073-.895c3.521-1.272 5.504-2.387 8.835-3.439a84.134 84.134 0 0 1 3.362-11.918 140.065 140.065 0 0 1-12.197 15.357z" fill="url(#b)" transform="translate(21.818 13)"/>
            <path d="M43.977 51.156c.565-.11 1.137-.184 1.713-.22 1.102-.07 2.209.026 3.283.283a20.2 20.2 0 0 1 4.235 1.476 16.576 16.576 0 0 1 4.631 3.47l-4.346.848c-1.42.264-2.819.626-4.187 1.083a13.886 13.886 0 0 0-3.458 1.712 6.29 6.29 0 0 0-2.252 2.89 9.163 9.163 0 0 0-.317 6.28c.613 2 1.7 3.825 3.172 5.324a16.26 16.26 0 0 0 5.456 3.486 20.789 20.789 0 0 0 6.345 1.57c2.025.185 4.067.004 6.027-.534a9.378 9.378 0 0 0 4.552-2.67 7.797 7.797 0 0 0 1.84-6.422 29.256 29.256 0 0 0-2.474-8.165 99.45 99.45 0 0 0-4.632-9.265 84.93 84.93 0 0 1-4.758-9.987 40.721 40.721 0 0 1-2.744-10.238 20.09 20.09 0 0 1 1.586-10.505 13.354 13.354 0 0 1 3.458-4.71 15.988 15.988 0 0 1 5.075-3.031 12.806 12.806 0 0 1 5.615-.786 10.24 10.24 0 0 1 5.187 2.042 11.497 11.497 0 0 1 3.6 5.025 18.45 18.45 0 0 1 1.031 7.851 3.321 3.321 0 0 1-.492 1.57 5.91 5.91 0 0 1-1.443 1.57 8.464 8.464 0 0 1-2.347 1.272 7.092 7.092 0 0 1-3.173.393 11.967 11.967 0 0 0 1.539-5.59 15.034 15.034 0 0 0-.952-5.213 11.224 11.224 0 0 0-2.379-3.848 4.295 4.295 0 0 0-2.982-1.57 3.175 3.175 0 0 0-2.649 1.665 10.64 10.64 0 0 0-1.348 5.433 30.733 30.733 0 0 0 1.126 10.536 84.458 84.458 0 0 0 3.648 10.411 232.372 232.372 0 0 0 4.362 9.752 51.492 51.492 0 0 1 3.283 8.746c.703 2.481.886 5.078.54 7.631a10.658 10.658 0 0 1-3.87 6.454 15.305 15.305 0 0 1-6.79 3.282c-2.761.61-5.601.801-8.421.565a29.959 29.959 0 0 1-8.835-2.025 25.088 25.088 0 0 1-7.708-4.711 22.7 22.7 0 0 1-5.219-7.13 14.553 14.553 0 0 1-1.348-8.07 7.82 7.82 0 0 1 2.347-4.93 15.669 15.669 0 0 1 5.473-3zM82.884 52.553c-.397-.078-.555-.36-.476-.863.08-.503.254-.77.555-.832 1.983 0 3.965-.205 5.948-.362.286-2.26.508-4.098.666-5.464.159-1.366.27-2.434.365-3.14.095-.707.159-1.241.19-1.571.02-.26.085-.515.19-.754a2.862 2.862 0 0 1 2.491-.455c.912.294 1.72.839 2.332 1.57a7.437 7.437 0 0 1 1.586 2.874 6.703 6.703 0 0 1 .11 3.674 8.124 8.124 0 0 0-.174.895v.864c0 .141 0 .377-.11.675 1.347-.22 2.934-.502 4.52-.706.285.094.428.376.396.8a.954.954 0 0 1-.396.848c-1.586.283-3.284.534-4.917.754a249.162 249.162 0 0 1-.889 4.962c-.253 1.303-.46 2.465-.634 3.517a184.742 184.742 0 0 1-.555 3.141c-.19 1.036-.46 2.198-.714 3.455-.143.832-.333 1.805-.555 2.92a56.655 56.655 0 0 0-.492 2.78 5.163 5.163 0 0 0 0 2.732 1.36 1.36 0 0 0 1.126.942 2.713 2.713 0 0 0 1.745-.628 8.467 8.467 0 0 0 1.967-2.088 65.136 65.136 0 0 0 2.268-3.565c.777-1.303 1.586-2.7 2.411-4.193l1.348.362c-.856 1.57-1.586 3.14-2.458 4.522a32.93 32.93 0 0 1-2.237 3.502 11.233 11.233 0 0 1-4.758 3.988 6.403 6.403 0 0 1-4.616.283 4.979 4.979 0 0 1-2.934-3.298 14.525 14.525 0 0 1 .111-7.537 152.99 152.99 0 0 0 1.3-7.851c.365-2.654.762-5.041 1.159-7.208-1.951.204-3.934.393-5.87.455z" fill="#FFF"/>
            <path d="m135.733 57.374-2.41 5.072a33.453 33.453 0 0 1-2.269 4.13 11.805 11.805 0 0 1-3.759 3.737 9.324 9.324 0 0 1-4.235 1.46 5.384 5.384 0 0 1-3.6-1.004 4.989 4.989 0 0 1-1.793-3.848c-.09-.787-.09-1.583 0-2.37.08-.927.19-1.916.333-3a27.587 27.587 0 0 1-1.411 2.827c-.54.942-1.095 1.821-1.586 2.622a12.523 12.523 0 0 1-5.203 4.145 6.75 6.75 0 0 1-2.601.55 5.633 5.633 0 0 1-2.125-.393 4.873 4.873 0 0 1-1.586-1.052 5.087 5.087 0 0 1-1.031-1.476 11.265 11.265 0 0 1-.905-3.25 15.547 15.547 0 0 1 0-3.832c.178-1.37.502-2.717.968-4.02a15.64 15.64 0 0 1 1.824-3.643 14.568 14.568 0 0 1 5.123-4.71 9.31 9.31 0 0 1 6.25-1.13c.851.229 1.672.561 2.442.988a5.068 5.068 0 0 1 1.951 1.9c.349-1.366.634-2.496.856-3.407.104-.54.269-1.067.492-1.57a3.575 3.575 0 0 1 2.443-.833c.823.04 1.61.35 2.236.88a4.707 4.707 0 0 1 1.444 2.182 5.21 5.21 0 0 1 0 3.14c-.077.5-.188.993-.334 1.477a95.729 95.729 0 0 0-.777 3.219c-.285 1.288-.602 2.7-.904 4.224-.301 1.523-.555 2.905-.698 4.475-.154.75-.099 1.525.159 2.246.159.55.59.981 1.142 1.146a2.394 2.394 0 0 0 1.872-.644 9.985 9.985 0 0 0 2.331-2.983l1-1.806c.332-.565.634-1.13.935-1.696.302-.565.603-1.162.936-1.774a47.23 47.23 0 0 0 1.079-2.167l1.411.188zm-16.13-4.538a3.965 3.965 0 0 0-2.078-1.931 3.539 3.539 0 0 0-2.38 0 5.89 5.89 0 0 0-2.966 2.324c-.665.934-1.199 1.953-1.586 3.03a21.628 21.628 0 0 0-1.586 5.575 16.698 16.698 0 0 0 0 5.103c.19 1.413.777 1.932 1.745 1.57a6.922 6.922 0 0 0 3.014-2.732c.682-1.052 1.586-2.465 2.49-4.318a62.065 62.065 0 0 0 2.855-6.281c.206-.817.349-1.57.491-2.34z" fill="#FFF"/>
            <path d="M163.316 50.12a45.27 45.27 0 0 1-4.092 6.438 35.718 35.718 0 0 1-4.235 4.71 20.602 20.602 0 0 1-3.902 2.921 11.167 11.167 0 0 1-3.172 1.272c-1.63.39-3.35.1-4.759-.8a13.036 13.036 0 0 1-3.426-3.141 343.9 343.9 0 0 1-1.586 7.851 3.56 3.56 0 0 1-2.347.785 2.98 2.98 0 0 1-1.967-.863 4.825 4.825 0 0 1-1.221-2.105 6.33 6.33 0 0 1-.111-3.015 836.242 836.242 0 0 0 2.966-17.1c.84-5.15 1.586-9.594 2.077-13.253.492-3.659.968-6.5 1.27-8.542.129-1.152.33-2.296.602-3.423a3.71 3.71 0 0 1 2.554-.487 5.276 5.276 0 0 1 4.124 3.046c.408.865.482 1.849.206 2.764-1.126 5.292-2.237 10.992-3.347 16.676a45.983 45.983 0 0 1 4.124-3.517 18.867 18.867 0 0 1 4.235-2.513 8.545 8.545 0 0 1 3.902-.706 4.163 4.163 0 0 1 3.077 1.79.374.374 0 0 1 0 .44 1.577 1.577 0 0 1-.444.47 1.735 1.735 0 0 1-.587.299c-.212 0-.339-.032-.38-.094a2.072 2.072 0 0 0-2.491-.864 11.044 11.044 0 0 0-3.743 1.979 39.644 39.644 0 0 0-4.394 3.925 146.346 146.346 0 0 0-4.378 4.711l-.158.99a36.977 36.977 0 0 0 1.348 4.223 16.116 16.116 0 0 0 1.999 3.816 8.2 8.2 0 0 0 2.712 2.481 4.113 4.113 0 0 0 3.6 0 14.07 14.07 0 0 0 4.759-3.596 49.963 49.963 0 0 0 5.789-8.197l1.396.629z" fill="#FFF"/>
            <path d="M179.224 46.838c-.84 1.727-1.586 3.439-2.426 5.119a47.085 47.085 0 0 1-2.253 4.396 11.807 11.807 0 0 1-3.68 3.958 7.635 7.635 0 0 1-4.234 1.303 5.307 5.307 0 0 1-3.617-1.57 7.072 7.072 0 0 1-1.776-4.711 18.656 18.656 0 0 1 .08-3.706c.142-1.46.348-2.936.586-4.428s.555-2.968.888-4.428c.333-1.46.682-2.748.968-3.863.285-1.115.555-2.042.777-2.78.222-.738.365-1.146.412-1.224a3.883 3.883 0 0 1 2.459-.676c.807.051 1.583.329 2.236.801a4.398 4.398 0 0 1 1.444 1.994c.305.94.305 1.95 0 2.89-.082.462-.193.918-.333 1.366-.222.8-.476 1.837-.778 3.14a105.289 105.289 0 0 0-.888 4.287 63.547 63.547 0 0 0-.745 4.852 5.8 5.8 0 0 0 .142 2.591c.123.672.55 1.25 1.158 1.57a1.885 1.885 0 0 0 1.856-.47 9.884 9.884 0 0 0 2.347-3.141c.35-.66.683-1.303 1-1.884.317-.581.65-1.178.967-1.759l1-1.79c.348-.628.713-1.335 1.11-2.151l1.3.314zM173.118 26.298a1.977 1.977 0 0 1 1.19 1.853 3.128 3.128 0 0 1-1.11 2.309 6.45 6.45 0 0 1-2.967 1.429 4.803 4.803 0 0 1-3.172-.204c-.4-.198-.732-.51-.952-.896a2.321 2.321 0 0 1-.301-1.177c0-.437.103-.867.301-1.256a3.46 3.46 0 0 1 .92-1.178 5.962 5.962 0 0 1 3.046-1.32 4.93 4.93 0 0 1 3.045.44z" fill="#FFF"/>
            <path d="M176.465 53.668c.602-4.71 1.078-8.165 1.411-10.772.333-2.606.635-4.554.857-5.904.222-1.35.38-2.277.444-2.795.031-.304.095-.604.19-.895a4.255 4.255 0 0 1 2.57-.471 5.249 5.249 0 0 1 2.458.958 5.265 5.265 0 0 1 1.586 2.104c.399.903.45 1.92.143 2.858a407.344 407.344 0 0 0-1.475 7.851 75.521 75.521 0 0 1 3.172-5.449c1.079-1.68 1.935-2.983 2.633-3.925a21.885 21.885 0 0 1 3.426-3.628 3.533 3.533 0 0 1 3.41-.612c1.001.27 1.89.847 2.538 1.649.541.749.91 1.606 1.079 2.512.15.926.15 1.87 0 2.795a20.76 20.76 0 0 1-.476 2.497 40.534 40.534 0 0 0-.714 2.748c-.222.99-.428 1.994-.619 3a53.016 53.016 0 0 0-.491 2.983c-.12.88-.183 1.766-.19 2.653.11 2.089.618 3.14 1.585 2.952.968-.188 1.951-1.177 3.173-2.999.745-1.272 1.49-2.575 2.268-3.925.777-1.35 1.586-2.701 2.41-4.036l1.333.848c-.84 1.57-1.586 2.968-2.443 4.46-.856 1.491-1.586 2.795-2.236 3.878a13.836 13.836 0 0 1-3.68 4.036 6.019 6.019 0 0 1-3.743 1.256 4.231 4.231 0 0 1-3.172-1.68 8.844 8.844 0 0 1-1.586-4.711 22.823 22.823 0 0 1-.159-4.554c.111-1.57.27-3.062.524-4.538.253-1.476.539-2.858.888-4.161.349-1.304.682-2.497.967-3.565.397-1.57.317-2.057-.254-1.758a10.637 10.637 0 0 0-2.585 2.842c-.19.251-.587.816-1.142 1.711-.555.895-1.253 1.963-2.014 3.25a126.236 126.236 0 0 0-2.411 4.21c-.825 1.522-1.586 2.998-2.38 4.412-.951 5.558-1.49 8.825-1.585 9.123-.65.518-1.505.71-2.316.518a3.566 3.566 0 0 1-1.935-1.429 7.812 7.812 0 0 1-1.222-2.764 9.952 9.952 0 0 1-.237-3.533z" fill="#FFF"/>
            <path d="M232.724 46.194c-.571 3.564-1.142 7.192-1.713 10.992.425-.161.86-.297 1.3-.409l.857-.25c.428-.117.862-.206 1.3-.268l2.65-.502c.348.628.682 1.256 1.03 1.868a44.963 44.963 0 0 0-3.045.566c-.698.157-1.269.298-1.713.44l-1.253.376a14.93 14.93 0 0 0-1.586.597c-.301 2.01-.619 4.193-.936 6.58-.317 2.386-.745 4.71-1.269 7.176-.523 2.465-1.173 4.773-1.966 7.207a27.987 27.987 0 0 1-2.855 6.281 12.87 12.87 0 0 1-4.426 4.57 6.541 6.541 0 0 1-4.758.926 6.127 6.127 0 0 1-3.79-3 12.772 12.772 0 0 1-1.587-6.641c-.053-2.09.187-4.178.714-6.203a19.89 19.89 0 0 1 2.125-5.26 30.771 30.771 0 0 1 2.22-3.298 35.73 35.73 0 0 1 2.38-2.748 33.91 33.91 0 0 1 2.791-2.56 57.313 57.313 0 0 1 3.458-2.59c.497-3.664.989-7.14 1.475-10.427a27.733 27.733 0 0 1-1.3 2.151c-.458.708-.99 1.366-1.586 1.963a10.713 10.713 0 0 1-2.316 1.916 6.56 6.56 0 0 1-2.665.99 6.243 6.243 0 0 1-3.013-.393 10.587 10.587 0 0 1-3.379-2.246 12.505 12.505 0 0 1-2.205-4.71 18.21 18.21 0 0 1-.475-5.214c.086-1.62.45-3.213 1.078-4.71a10.218 10.218 0 0 1 2.411-3.534 7.975 7.975 0 0 1 5.139-1.994c2.228-.05 4.414.61 6.233 1.884.71.543 1.382 1.13 2.015 1.759a13.494 13.494 0 0 1 1.713 2.151c.143-.785.27-1.397.365-1.853.05-.283.125-.561.222-.832a4.17 4.17 0 0 1 2.458.69 8.218 8.218 0 0 1 2.316 2.105 9.917 9.917 0 0 1 1.586 3.14 6.407 6.407 0 0 1 0 3.314zm-10.548 16.692a93.339 93.339 0 0 0-2.934 2.685c-.856.817-1.665 1.57-2.38 2.465-.713.895-1.41 1.57-2.045 2.513a20.493 20.493 0 0 0-1.856 2.936 18.604 18.604 0 0 0-1.586 4.711 16.92 16.92 0 0 0-.412 4.71c.023 1.494.38 2.963 1.046 4.303a2.376 2.376 0 0 0 1.856 1.398 2.91 2.91 0 0 0 2.11-1.162 10.385 10.385 0 0 0 1.903-3.298c.536-1.57.98-3.169 1.332-4.789.497-2.094.957-4.23 1.38-6.407.413-2.167.777-4.161 1.079-6.014.301-1.853.476-3.188.523-4.051h-.016zm-.745-25.125a3.342 3.342 0 0 0-3.014.519 5.346 5.346 0 0 0-1.586 2.025 12.897 12.897 0 0 0-1.586 4.711 19.683 19.683 0 0 0 0 5.543c.19 1.743.777 2.654 1.745 2.732a3.913 3.913 0 0 0 2.998-1.57 30.126 30.126 0 0 0 2.268-3.015c.824-1.209 1.697-2.654 2.648-4.302.096-.581.19-1.147.254-1.696.064-.55.159-1.037.27-1.492a7.757 7.757 0 0 0-1.983-2.434 5.029 5.029 0 0 0-1.998-1.052l-.016.031z" fill="#FFF"/>
            <path d="M181.563 67.567c-10.31-7.27-21.413-5.307-32.436-3.926-26.964 3.376-52.96 10.882-79.147 17.76-13.72 3.612-27.678 6.485-41.683 8.856-7.93 1.335-16.432.927-23.237-4.05a51.29 51.29 0 0 1-4.758-4.02c-1.396-1.932 2.474-.676 2.997-.487 13.546 5.134 26.964 3.14 40.542-.299 31.183-7.757 62.334-15.703 93.707-22.753a86.833 86.833 0 0 1 28.122-1.35 22.436 22.436 0 0 1 14.275 7.411 16.646 16.646 0 0 1 1.618 2.858z" fill="url(#c)" transform="translate(21.818 13)"/>
            <path d="M238.212 55.882c4.758-1.57 9.77-3.14 13.878-6.03 4.108-2.889 8.2-7.584 8.09-12.562a7.807 7.807 0 0 0-1.951-4.962c-1.206-1.067-4.06-1.711-5.44-.69-.81.596-1.682 1.004-2.665 4.616-2.22 8.134-5.235 14.447-11.912 19.676M240.908 46.838c1.997-2.35 3.603-5.001 4.759-7.852 1.015-2.936 1.395-6.705-.46-9.186a4.762 4.762 0 0 0-2.76-1.806 3.18 3.18 0 0 0-2.998 1.57c-.19.582-.476 1.084.333 3.251 1.808 4.868 2.57 9.108 1.079 14.133M37.426 18.007a47.047 47.047 0 0 0-8.105 12.657c-1.745 4.71-2.522 10.835.396 14.933a7.804 7.804 0 0 0 4.41 3.03c1.586.236 4.346-.816 4.917-2.417.333-.958.825-1.76-.397-5.308-2.744-7.977-3.806-14.886-1.221-22.895M40.28 26.99a29.03 29.03 0 0 0 .477 9.233c.825 2.983 2.633 6.28 5.583 7.364a4.948 4.948 0 0 0 3.299 0 3.133 3.133 0 0 0 1.586-2.952c-.174-.597-.222-1.178-2.11-2.528-4.234-3.078-7.248-6.218-8.834-11.118" fill="#FFC200"/>
        </g>
    </g>
</svg>
