<svg width="160" height="40" xmlns="http://www.w3.org/2000/svg" xmlns:xlink="http://www.w3.org/1999/xlink">
    <defs>
        <path id="a" d="M0 0h13.529v18.773H0z"/>
        <path id="c" d="M0 0h13.451v9.915H0z"/>
        <path id="e" d="M0 0h13.451v9.915H0z"/>
        <path d="M4.866.138C2.782.598 1.313 1.821.467 3.777c-.165.384-.3.777-.346 1.196-.091.265-.108.542-.117.817-.068 1.968.751 3.524 2.271 4.733 1.117.889 2.415 1.304 3.836 1.357v2.18c.037.002.055.009.068.003.062-.026.123-.055.183-.085a13.632 13.632 0 0 0 2.86-1.968c1.346-1.219 2.389-2.637 2.834-4.427.206-.828.262-1.668.08-2.511a3.869 3.869 0 0 0-.315-1.157c-.017-.056-.03-.114-.052-.167C10.829 1.468 8.547 0 6.136 0a5.89 5.89 0 0 0-1.27.138" id="g"/>
    </defs>
    <g fill="none" fill-rule="evenodd">
        <path fill="none" d="M0 0h160v40H0z"/>
        <g transform="translate(35 9.82)">
            <mask id="b" fill="#fff">
                <use xlink:href="#a"/>
            </mask>
            <path d="M6.196 15.63c1.157 0 2.006-.22 2.544-.661.538-.44.809-.994.809-1.659 0-.608-.21-1.093-.63-1.455-.419-.362-1.057-.67-1.915-.925l-1.916-.588c-.758-.234-1.447-.5-2.065-.793a6.389 6.389 0 0 1-1.586-1.043 4.196 4.196 0 0 1-1.018-1.41c-.24-.539-.36-1.18-.36-1.925 0-1.586.61-2.845 1.826-3.775C3.103.466 4.77 0 6.884 0c.838 0 1.611.065 2.32.192.708.127 1.321.303 1.841.53.517.223.922.503 1.212.835.289.334.433.706.433 1.117 0 .392-.094.73-.284 1.013-.189.285-.424.515-.703.691-.478-.333-1.112-.62-1.9-.866a8.706 8.706 0 0 0-2.59-.368c-1.038 0-1.826.181-2.364.543-.54.362-.808.857-.808 1.484 0 .51.183.901.553 1.175.37.275.953.539 1.751.794l1.707.528c1.735.51 3.082 1.205 4.04 2.087.958.881 1.437 2.076 1.437 3.584a5.04 5.04 0 0 1-.48 2.203 4.808 4.808 0 0 1-1.391 1.718c-.609.48-1.366.852-2.275 1.117-.908.264-1.94.396-3.097.396-.918 0-1.762-.077-2.53-.234-.767-.157-1.43-.368-1.99-.632s-.993-.578-1.302-.94C.155 16.605 0 16.208 0 15.777c0-.45.135-.837.405-1.16.268-.323.583-.563.942-.72.498.431 1.156.828 1.975 1.19.818.362 1.775.543 2.874.543" fill="#FFF" mask="url(#b)"/>
        </g>
        <path d="M54.44 25.157c.39.274.933.412 1.631.412.339 0 .684-.04 1.033-.118.348-.078.663-.176.943-.294.16.157.294.349.404.573.109.225.164.484.164.778 0 .589-.27 1.073-.808 1.455-.539.381-1.407.573-2.604.573-1.576 0-2.818-.348-3.726-1.043-.908-.696-1.362-1.847-1.362-3.452V10.556c.16-.04.393-.089.703-.147a5.348 5.348 0 0 1 1.003-.089c.698 0 1.212.128 1.542.383.329.254.493.705.493 1.35v2.439h4.4c.1.157.19.363.27.618.08.254.12.528.12.822 0 .51-.12.882-.36 1.117-.24.234-.559.352-.958.352h-3.472v6.405c0 .627.195 1.077.584 1.351M65.768 25.744c.579 0 1.108-.054 1.587-.161.48-.107.827-.239 1.048-.396v-3.262l-2.904.265c-.798.079-1.406.25-1.826.513-.42.265-.629.682-.629 1.25s.215 1.008.645 1.322c.429.313 1.121.47 2.08.47m-.12-11.957c1.955 0 3.517.411 4.684 1.234 1.168.822 1.751 2.094 1.751 3.818v6.787c0 .47-.12.842-.36 1.117a3.693 3.693 0 0 1-.897.734c-.56.333-1.268.597-2.125.793-.859.196-1.836.294-2.934.294-1.995 0-3.567-.378-4.713-1.131-1.15-.754-1.721-1.884-1.721-3.393 0-1.312.423-2.317 1.272-3.012.846-.695 2.08-1.122 3.696-1.278l4.1-.411v-.529c0-.744-.274-1.292-.822-1.646-.55-.352-1.323-.528-2.32-.528a9.32 9.32 0 0 0-2.275.279c-.739.186-1.397.417-1.976.691a1.932 1.932 0 0 1-.554-.632 1.729 1.729 0 0 1-.223-.867c0-.39.093-.71.283-.955.19-.244.494-.465.913-.662a9.086 9.086 0 0 1 1.976-.528 14.305 14.305 0 0 1 2.245-.175M77.441 28.241a5.283 5.283 0 0 1-1.017.089c-.699 0-1.218-.128-1.556-.382-.34-.255-.51-.705-.51-1.352V9.028c.16-.059.394-.112.703-.161.31-.05.654-.074 1.033-.074.7 0 1.218.127 1.557.382.34.255.509.705.509 1.35v9.109l5.807-5.67c.758 0 1.366.165 1.825.499.46.334.688.755.688 1.263 0 .45-.144.842-.433 1.176-.29.332-.744.754-1.362 1.263l-3.233 2.76 5.717 5.26c-.08.686-.29 1.22-.629 1.6-.339.384-.828.574-1.466.574-.46 0-.863-.108-1.212-.323-.349-.216-.774-.596-1.272-1.145l-4.43-4.818v6.022c-.18.04-.42.088-.719.146M88.576 14.316c.16-.04.394-.088.703-.146.31-.06.644-.089 1.003-.089.718 0 1.242.128 1.572.382.328.255.494.705.494 1.35v12.282c-.16.039-.395.088-.704.146a5.36 5.36 0 0 1-1.002.089c-.719 0-1.243-.128-1.573-.382-.328-.254-.493-.704-.493-1.352v-12.28zm-.3-4.26c0-.567.205-1.053.614-1.455.409-.4.932-.601 1.571-.601.639 0 1.157.2 1.557.601.399.402.598.888.598 1.455 0 .589-.199 1.082-.598 1.484-.4.401-.918.602-1.557.602-.639 0-1.162-.2-1.571-.602a1.996 1.996 0 0 1-.614-1.484zM103.437 17.313c-.489-.392-1.152-.589-1.99-.589-.58 0-1.114.07-1.602.206-.489.138-.913.315-1.273.53v10.634c-.178.04-.419.089-.717.147a5.283 5.283 0 0 1-1.018.089c-.698 0-1.217-.128-1.556-.381-.34-.255-.51-.706-.51-1.353v-9.43c0-.47.1-.853.3-1.146.2-.293.508-.578.927-.852.579-.392 1.348-.72 2.306-.985.958-.263 2.015-.395 3.172-.395 2.056 0 3.648.444 4.775 1.336 1.127.892 1.69 2.2 1.69 3.922v9.048c-.16.04-.393.089-.703.147-.31.059-.644.089-1.003.089-.718 0-1.242-.128-1.57-.381-.33-.255-.496-.706-.496-1.353v-7.433c0-.842-.243-1.459-.732-1.85M116.771 24.745c.578 0 1.072-.078 1.483-.234a4.683 4.683 0 0 0 1.061-.559v-6.64a5.216 5.216 0 0 0-.973-.41c-.37-.118-.813-.177-1.331-.177-1.098 0-1.98.329-2.65.985-.668.656-1.002 1.67-1.002 3.04 0 .745.084 1.371.255 1.881.17.509.408.92.718 1.233.31.314.673.539 1.092.676.419.137.869.205 1.347.205zm2.604 2.174c-.4.196-.864.363-1.392.5-.528.137-1.143.206-1.84.206a8.62 8.62 0 0 1-2.544-.367 5.417 5.417 0 0 1-2.096-1.19c-.6-.549-1.073-1.259-1.421-2.13-.35-.871-.525-1.934-.525-3.188 0-1.135.176-2.139.525-3.012.348-.87.848-1.6 1.495-2.189a6.36 6.36 0 0 1 2.32-1.32c.899-.295 1.897-.442 2.993-.442 1.038 0 1.991.127 2.859.382.868.255 1.56.55 2.08.88.36.237.644.5.854.795.21.294.314.666.314 1.116V28.3c0 1-.185 1.861-.554 2.585a4.89 4.89 0 0 1-1.512 1.778c-.638.46-1.386.798-2.244 1.013-.858.216-1.787.324-2.784.324-1.037 0-1.941-.092-2.708-.28-.769-.185-1.343-.396-1.722-.631-.658-.411-.987-.96-.987-1.645 0-.372.08-.695.24-.97.159-.274.348-.48.567-.617.52.314 1.148.588 1.886.823a7.745 7.745 0 0 0 2.364.353c1.198 0 2.135-.225 2.815-.676.677-.45 1.017-1.175 1.017-2.174v-1.264zM133.952 13.846h-.059l-5.148 7.345h5.178l.03-7.345zm-1.076-3.496c.279-.078.602-.147.972-.206.37-.058.693-.088.972-.088.34 0 .669.035.989.103.319.069.603.182.853.338.248.157.448.372.598.646.15.274.226.618.226 1.029v9.019h2.663c.1.157.19.368.268.631.08.265.12.544.12.837 0 .53-.125.922-.374 1.175-.25.256-.583.383-1.002.383h-1.675v3.908c-.162.039-.4.088-.719.146-.32.06-.64.089-.958.089-.639 0-1.138-.1-1.498-.295-.359-.195-.538-.626-.538-1.292v-2.556h-7.842c-.34-.157-.629-.416-.868-.778-.239-.362-.359-.798-.359-1.308 0-.273.03-.558.09-.852.06-.294.169-.559.33-.793l7.752-10.136zM149.397 28.594c-1.197 0-2.265-.161-3.202-.484-.94-.324-1.732-.783-2.38-1.38a5.897 5.897 0 0 1-1.482-2.146c-.34-.832-.51-1.767-.51-2.806V10.291c.161-.038.415-.088.765-.147a6.291 6.291 0 0 1 1.032-.088c.719 0 1.243.128 1.572.383.33.254.494.724.494 1.41v9.783c0 1.233.349 2.179 1.047 2.835.698.656 1.587.984 2.664.984 1.077 0 1.965-.328 2.664-.984.698-.656 1.047-1.602 1.047-2.835V10.29c.18-.038.44-.088.779-.147a6.013 6.013 0 0 1 1.017-.088c.719 0 1.247.128 1.587.383.339.254.509.724.509 1.41v9.93c0 1.038-.17 1.973-.51 2.805a5.836 5.836 0 0 1-1.496 2.146c-.658.597-1.456 1.056-2.394 1.38-.938.323-2.006.484-3.203.484" fill="#FFF"/>
        <g>
            <g transform="translate(3 8)">
                <mask id="d" fill="#fff">
                    <use xlink:href="#c"/>
                </mask>
                <path d="M12.145 4.846a2.588 2.588 0 0 0 .956-3.547 2.62 2.62 0 0 0-3.568-.95l-8.227 4.72A2.588 2.588 0 0 0 .35 8.616a2.62 2.62 0 0 0 3.569.95l8.226-4.72z" fill="#FFC200" mask="url(#d)"/>
            </g>
            <path d="m10.01 24.033 4.088-2.344a2.588 2.588 0 0 0 .956-3.547 2.62 2.62 0 0 0-3.568-.95l-4.088 2.343a2.588 2.588 0 0 0-.956 3.547 2.62 2.62 0 0 0 3.568.95" fill="#FFC200"/>
            <g transform="translate(7.354 22.085)">
                <mask id="f" fill="#fff">
                    <use xlink:href="#e"/>
                </mask>
                <path d="M13.1 1.299a2.62 2.62 0 0 0-3.567-.95l-8.227 4.72A2.588 2.588 0 0 0 .35 8.616a2.62 2.62 0 0 0 3.569.95l8.226-4.72a2.588 2.588 0 0 0 .956-3.547z" fill="#FFC200" mask="url(#f)"/>
            </g>
            <g transform="translate(16.754 10.31)">
                <mask id="h" fill="#fff">
                    <use xlink:href="#g"/>
                </mask>
                <path d="M4.866.138C2.782.598 1.313 1.821.467 3.777c-.165.384-.3.777-.346 1.196-.091.265-.108.542-.117.817-.068 1.968.751 3.524 2.271 4.733 1.117.889 2.415 1.304 3.836 1.357v2.18c.037.002.055.009.068.003.062-.026.123-.055.183-.085a13.632 13.632 0 0 0 2.86-1.968c1.346-1.219 2.389-2.637 2.834-4.427.206-.828.262-1.668.08-2.511a3.869 3.869 0 0 0-.315-1.157c-.017-.056-.03-.114-.052-.167C10.829 1.468 8.547 0 6.136 0a5.89 5.89 0 0 0-1.27.138" fill="#F18500" mask="url(#h)"/>
            </g>
        </g>
    </g>
</svg>
