<svg width="362" height="784" xmlns="http://www.w3.org/2000/svg" xmlns:xlink="http://www.w3.org/1999/xlink">
    <defs>
        <path id="b" d="M0 0h362v784H0z"/>
        <path id="d" d="M0 784h362V0H0z"/>
        <path d="M13.415 0C6.038 0 0 6.037 0 13.415v.325c0 7.377 6.038 13.413 13.415 13.413h51.262c7.378 0 13.415-6.036 13.415-13.413v-.325C78.092 6.037 72.055 0 64.677 0H13.415z" id="f"/>
        <path d="M12.789 0C5.756 0 0 5.755 0 12.789s5.756 12.789 12.789 12.789h49.774c7.034 0 12.789-5.755 12.789-12.789S69.597 0 62.563 0H12.789z" id="i"/>
        <linearGradient x1="50%" y1="100.002%" x2="50%" y2=".002%" id="g">
            <stop stop-color="#EBE9E9" offset="0%"/>
            <stop stop-color="#FBFBF9" offset="100%"/>
        </linearGradient>
        <linearGradient x1="50%" y1="100.001%" x2="50%" y2="0%" id="j">
            <stop stop-color="#FBFBF9" offset="0%"/>
            <stop stop-color="#EBE9E9" offset="100%"/>
        </linearGradient>
        <filter x="-8.1%" y="-3.8%" width="116.3%" height="107.5%" filterUnits="objectBoundingBox" id="a">
            <feOffset dy="5" in="SourceAlpha" result="shadowOffsetOuter1"/>
            <feGaussianBlur stdDeviation="5" in="shadowOffsetOuter1" result="shadowBlurOuter1"/>
            <feColorMatrix values="0 0 0 0 0 0 0 0 0 0 0 0 0 0 0 0 0 0 0.0852392237 0" in="shadowBlurOuter1" result="shadowMatrixOuter1"/>
            <feMerge>
                <feMergeNode in="shadowMatrixOuter1"/>
                <feMergeNode in="SourceGraphic"/>
            </feMerge>
        </filter>
    </defs>
    <g filter="url(#a)" fill="none" fill-rule="evenodd">
        <mask id="c" fill="#fff">
            <use xlink:href="#b"/>
        </mask>
        <path d="M359.909 747.206c0 19.205-15.713 34.919-34.92 34.919H37.01c-19.204 0-34.918-15.714-34.918-34.92V45.43c0-23.954 19.6-43.553 43.554-43.553H324.99c19.206 0 34.919 15.713 34.919 34.919v710.41zM326.796 0H43.91C19.76 0 0 19.76 0 43.91v704.886C0 768.158 15.842 784 35.205 784h291.59C346.159 784 362 768.158 362 748.796V35.205C362 15.842 346.158 0 326.796 0z" fill="#E8EAEA" mask="url(#c)"/>
        <mask id="e" fill="#fff">
            <use xlink:href="#d"/>
        </mask>
        <path d="M16 715h330V59H16v656zM324.99 1.875H45.645c-23.955 0-43.554 19.6-43.554 43.554v701.777c0 19.205 15.714 34.918 34.919 34.918h287.98c19.205 0 34.919-15.713 34.919-34.918V36.794c0-19.205-15.714-34.919-34.919-34.919z" fill="#FAFAFA" mask="url(#e)"/>
        <path d="M211.786 40.464h-61.572a3.279 3.279 0 0 1-3.268-3.27 3.28 3.28 0 0 1 3.268-3.27h61.572a3.28 3.28 0 0 1 3.268 3.27 3.279 3.279 0 0 1-3.268 3.27" fill="#E8EAEA" mask="url(#e)"/>
        <g transform="translate(141.954 733.182)">
            <mask id="h" fill="#fff">
                <use xlink:href="#f"/>
            </mask>
            <path d="M13.415 0C6.038 0 0 6.037 0 13.415v.325c0 7.377 6.038 13.413 13.415 13.413h51.262c7.378 0 13.415-6.036 13.415-13.413v-.325C78.092 6.037 72.055 0 64.677 0H13.415z" fill="url(#g)" mask="url(#h)"/>
        </g>
        <g transform="translate(143.324 733.97)">
            <mask id="k" fill="#fff">
                <use xlink:href="#i"/>
            </mask>
            <path d="M12.789 0C5.756 0 0 5.755 0 12.789s5.756 12.789 12.789 12.789h49.774c7.034 0 12.789-5.755 12.789-12.789S69.597 0 62.563 0H12.789z" fill="url(#j)" mask="url(#k)"/>
        </g>
    </g>
</svg>
